<?xml version="1.0" encoding="UTF-8" standalone="no"?>
<!DOCTYPE svg PUBLIC "-//W3C//DTD SVG 1.1//EN" "http://www.w3.org/Graphics/SVG/1.1/DTD/svg11.dtd">
<!-- Created with Vectornator (http://vectornator.io/) -->
<svg height="100%" stroke-miterlimit="10" style="fill-rule:nonzero;clip-rule:evenodd;stroke-linecap:round;stroke-linejoin:round;" version="1.1" viewBox="0 0 128 128" width="100%" xml:space="preserve" xmlns="http://www.w3.org/2000/svg" xmlns:vectornator="http://vectornator.io" xmlns:xlink="http://www.w3.org/1999/xlink">
<defs/>
<g id="Layer-1" vectornator:layerName="Layer 1">
<path d="M101.007 121.348C100.857 118.522 98.3715 116.367 95.4285 116.367L90.2288 116.367C87.2138 116.367 84.7283 113.916 84.7283 110.942L84.7283 104.619C86.311 103.949 87.8216 103.207 89.2479 102.316C89.3261 102.316 89.3984 102.239 89.3984 102.239C89.4766 102.162 89.5488 102.162 89.6271 102.091C104.775 93.3939 114.952 77.1813 114.952 58.6729C114.952 40.7572 105.155 24.0998 89.4776 15.1062C84.8014 12.429 79.8305 10.5708 74.6309 9.45478L76.665 3.58374C76.7432 3.28692 76.7432 2.91293 76.5867 2.69328C76.4363 2.4677 76.1354 2.24806 75.8345 2.17089C68.071 0.609704 59.8564 0.609704 52.1655 2.17089C51.8646 2.24806 51.5637 2.4677 51.4133 2.69328C51.2628 2.91887 51.1846 3.28691 51.335 3.58374L53.3691 9.45478C48.1695 10.5708 43.1924 12.4288 38.5224 15.1062C22.7724 24.177 13.0478 40.8286 13.0478 58.7504C13.0478 76.5947 22.7731 93.246 38.45 102.246L38.5282 102.246C40.0327 103.136 41.6215 103.884 43.2765 104.626L43.2765 110.871C43.2765 113.845 40.791 116.297 37.7759 116.297L32.5762 116.297C29.6395 116.297 27.226 118.529 26.9974 121.277C26.9192 122.762 27.3765 124.174 28.4297 125.29C29.4829 126.329 30.9152 127 32.4259 127L95.6648 127C97.1693 127 98.6015 126.406 99.6609 125.29C100.63 124.251 101.087 122.839 101.009 121.349L101.007 121.348ZM40.6325 100.904C43.6475 95.7745 57.7414 71.6843 60.607 66.7043C61.6602 67.1495 62.7916 67.3751 64.0012 67.3751C65.1326 67.3751 66.3362 67.1495 67.3954 66.7043L87.3699 100.904C80.4369 104.697 72.4448 106.775 64.0013 106.775C55.7806 106.78 47.7937 104.768 40.6328 100.904L40.6325 100.904ZM60.7564 53.1698C61.7374 52.5762 62.8688 52.2794 64.0003 52.2794C65.1317 52.2794 66.2632 52.5762 67.2441 53.1698C69.2782 54.2859 70.4879 56.4407 70.4879 58.6728C70.4879 60.9761 69.2061 63.0597 67.2441 64.1758C65.2822 65.2918 62.7244 65.2918 60.7626 64.1758C58.7285 63.0597 57.5188 60.9049 57.5188 58.6015C57.5127 56.4466 58.7224 54.3629 60.7564 53.1698ZM89.3246 99.7881L69.3501 65.5888C71.1616 64.1759 72.4435 62.0923 72.7443 59.8662L112.766 59.8662C112.314 76.7425 103.04 91.5367 89.3248 99.7887L89.3246 99.7881ZM112.687 57.6347L72.6656 57.6347C72.3647 55.4026 71.1611 53.325 69.2714 51.9121L89.2459 17.7129C103.419 26.184 112.314 41.3518 112.687 57.6353L112.687 57.6347ZM74.0984 4.17784L65.7332 28.338C65.4323 29.2284 64.6018 29.6024 63.9217 29.6024C63.2416 29.6024 62.4894 29.3056 62.1102 28.338L53.8955 4.17784C60.5275 2.98464 67.4664 2.98464 74.098 4.17784L74.0984 4.17784ZM60.0761 29.0097C60.6779 30.7193 62.1885 31.7582 63.9939 31.7582C65.8054 31.7582 67.3099 30.6422 67.9118 29.0097L73.8638 11.6882C78.6121 12.6558 83.0596 14.2882 87.3565 16.5976L67.382 50.7968C65.2696 49.9064 62.7841 49.9064 60.6717 50.7968L40.6972 16.5976C44.916 14.2943 49.4416 12.6558 54.1899 11.6882L60.0761 29.0097ZM38.6688 17.7069L58.6433 51.9062C56.7595 53.3191 55.55 55.4027 55.2491 57.6288L15.3001 57.6288C15.6793 41.3513 24.574 26.1847 38.6686 17.7063L38.6688 17.7069ZM15.3064 59.8664L55.3278 59.8664C55.6287 62.1696 56.8323 64.1761 58.722 65.5889C44.9284 89.2339 40.2589 97.1105 38.7475 99.7882C24.5748 91.3112 15.6794 76.1432 15.3066 59.8658L15.3064 59.8664ZM95.5772 124.846L32.4168 124.846C30.8341 124.846 29.173 123.51 29.2513 121.498C29.3295 119.859 30.834 118.601 32.5672 118.601L37.7669 118.601C42.0639 118.601 45.5304 115.181 45.5304 110.943L45.5304 105.588C51.4101 107.82 57.663 109.008 63.9935 109.008C70.5532 109.008 76.7339 107.743 82.4566 105.588L82.4566 110.943C82.4566 115.181 85.923 118.601 90.2201 118.601C90.2201 118.601 98.513 117.265 98.7357 121.498C98.8921 123.059 97.6103 124.846 95.5761 124.846L95.5772 124.846Z" fill="#000000" fill-rule="nonzero" opacity="1" stroke="#000002" stroke-linecap="butt" stroke-linejoin="round" stroke-width="2" vectornator:layerName="path"/>
</g>
</svg>
